<?xml version="1.0" encoding="UTF-8"?>
<!DOCTYPE svg PUBLIC "-//W3C//DTD SVG 1.1//EN" "http://www.w3.org/Graphics/SVG/1.1/DTD/svg11.dtd">
<!-- Creator: CorelDRAW 2021 (64 Bit) -->
<svg xmlns="http://www.w3.org/2000/svg" xml:space="preserve" width="36.0258mm" height="14.9919mm" version="1.1" style="shape-rendering:geometricPrecision; text-rendering:geometricPrecision; image-rendering:optimizeQuality; fill-rule:evenodd; clip-rule:evenodd"
viewBox="0 0 30.62 12.74"
 xmlns:xlink="http://www.w3.org/1999/xlink"
 xmlns:xodm="http://www.corel.com/coreldraw/odm/2003">
 <defs>
  <style type="text/css">
   <![CDATA[
    .fil0 {fill:#1A1A1A;fill-rule:nonzero}
   ]]>
  </style>
 </defs>
 <g id="Camada_x0020_1">
  <metadata id="CorelCorpID_0Corel-Layer"/>
  <path class="fil0" d="M4.04 10.93c0,0.28 -0.05,0.53 -0.14,0.75 -0.09,0.22 -0.23,0.41 -0.41,0.57 -0.18,0.16 -0.39,0.28 -0.64,0.36 -0.25,0.08 -0.53,0.13 -0.83,0.13 -0.64,0 -1.13,-0.16 -1.49,-0.48 -0.35,-0.32 -0.53,-0.76 -0.53,-1.32l0 -3.85c0,-0.06 0.02,-0.12 0.05,-0.16 0.04,-0.04 0.09,-0.06 0.16,-0.06l0.61 0c0.2,0 0.34,0.06 0.44,0.18 0.1,0.12 0.15,0.27 0.15,0.45l0 3.44c0,0.19 0.05,0.34 0.15,0.46 0.1,0.12 0.25,0.18 0.46,0.18 0.21,0 0.36,-0.06 0.46,-0.18 0.1,-0.12 0.15,-0.27 0.15,-0.46l0 -10.23c0,-0.16 0.06,-0.29 0.17,-0.39 0.11,-0.1 0.26,-0.15 0.44,-0.15l0.59 0c0.07,0 0.12,0.02 0.16,0.06 0.04,0.04 0.05,0.09 0.05,0.16l0 10.54zm6.48 1.64c-0.06,0 -0.11,-0.02 -0.15,-0.06 -0.04,-0.04 -0.06,-0.09 -0.06,-0.15l-1.16 -11.93c-0.01,-0.06 0.01,-0.12 0.06,-0.18 0.05,-0.06 0.12,-0.08 0.21,-0.08l0.52 0c0.18,0 0.32,0.05 0.44,0.15 0.12,0.1 0.18,0.23 0.19,0.37l0.54 8.87 0.55 -8.87c0.01,-0.15 0.08,-0.27 0.2,-0.37 0.12,-0.1 0.26,-0.15 0.43,-0.15l0.52 0c0.1,0 0.17,0.03 0.22,0.08 0.05,0.06 0.06,0.12 0.06,0.18l-1.16 11.93c-0.01,0.06 -0.03,0.11 -0.06,0.15 -0.04,0.04 -0.08,0.06 -0.15,0.06l-1.19 0zm10.91 -8.05c-0.2,0 -0.35,-0.06 -0.46,-0.18 -0.1,-0.12 -0.15,-0.26 -0.15,-0.45l0 -2.08c0,-0.19 -0.05,-0.34 -0.15,-0.46 -0.1,-0.12 -0.26,-0.18 -0.46,-0.18 -0.21,0 -0.36,0.06 -0.46,0.17 -0.1,0.12 -0.15,0.27 -0.15,0.46 0,0.57 0.04,1.06 0.11,1.47 0.07,0.41 0.17,0.78 0.3,1.09 0.13,0.32 0.27,0.6 0.43,0.85 0.16,0.25 0.32,0.5 0.48,0.76 0.16,0.25 0.32,0.52 0.48,0.8 0.16,0.28 0.3,0.62 0.42,1 0.13,0.38 0.23,0.83 0.3,1.33 0.07,0.51 0.11,1.11 0.11,1.82 0,0.28 -0.05,0.53 -0.14,0.75 -0.09,0.22 -0.23,0.41 -0.41,0.57 -0.18,0.16 -0.39,0.28 -0.64,0.36 -0.25,0.08 -0.53,0.13 -0.83,0.13 -0.64,0 -1.13,-0.16 -1.49,-0.48 -0.35,-0.33 -0.53,-0.77 -0.53,-1.33l0 -2.59c0,-0.06 0.02,-0.12 0.05,-0.16 0.03,-0.04 0.09,-0.06 0.16,-0.06l0.59 0c0.2,0 0.36,0.06 0.46,0.18 0.1,0.12 0.15,0.26 0.15,0.45l0 2.19c0,0.19 0.05,0.34 0.15,0.46 0.1,0.12 0.25,0.18 0.46,0.18 0.21,0 0.36,-0.06 0.46,-0.18 0.1,-0.12 0.15,-0.27 0.15,-0.46 0,-0.67 -0.04,-1.25 -0.11,-1.72 -0.07,-0.48 -0.18,-0.89 -0.3,-1.24 -0.13,-0.35 -0.27,-0.65 -0.42,-0.9 -0.16,-0.26 -0.32,-0.5 -0.48,-0.74 -0.16,-0.23 -0.32,-0.48 -0.48,-0.73 -0.16,-0.25 -0.3,-0.55 -0.43,-0.89 -0.13,-0.34 -0.22,-0.75 -0.3,-1.21 -0.07,-0.46 -0.11,-1.03 -0.11,-1.69 0,-0.28 0.05,-0.53 0.14,-0.75 0.09,-0.22 0.23,-0.41 0.41,-0.57 0.18,-0.16 0.39,-0.28 0.63,-0.36 0.25,-0.08 0.52,-0.13 0.83,-0.13 0.64,0 1.14,0.16 1.49,0.48 0.35,0.33 0.53,0.77 0.53,1.33l0 2.49c0,0.06 -0.02,0.12 -0.05,0.16 -0.04,0.04 -0.09,0.06 -0.16,0.06l-0.59 0zm8.41 -4.35c0.26,0 0.43,0.05 0.52,0.15 0.09,0.1 0.12,0.23 0.1,0.4l-1.71 10.68 1.34 0c0.16,0 0.29,0.06 0.39,0.17 0.1,0.11 0.15,0.26 0.15,0.44l0 0.36c0,0.07 -0.02,0.12 -0.06,0.16 -0.04,0.04 -0.09,0.05 -0.16,0.05l-2.91 0c-0.07,0 -0.12,-0.02 -0.16,-0.06 -0.04,-0.04 -0.06,-0.09 -0.05,-0.16l1.66 -11.01 -1 0c-0.16,0 -0.29,-0.06 -0.39,-0.17 -0.1,-0.11 -0.15,-0.26 -0.15,-0.44l0 -0.36c0,-0.07 0.02,-0.13 0.06,-0.16 0.04,-0.04 0.09,-0.05 0.16,-0.05l2.22 0z"/>
 </g>
</svg>
